# xmcd CD database file
#
# Track frame offsets:
#	150
#	14661
#	31474
#	45333
#	61086
#	77566
#
# Disc length: 1231 seconds
#
# Revision: 2
# Processed by: cddbd v1.5.2PL0 Copyright (c) Steve Scherf et al.
# Submitted via: CDex 2.21
#
DISCID=3e04cd06
DTITLE=Erin Hay - Call Me Darling
DYEAR=2019
DGENRE=Country
TTITLE0=Call Me Darling
TTITLE1=Don't Close Your Eyes
TTITLE2=I'm Gettin' Over You
TTITLE3=Love Is
TTITLE4=Now I'm Needing You
TTITLE5=Whatever It Takes
EXTD=YEAR: 2019
EXTT0=
EXTT1=
EXTT2=
EXTT3=
EXTT4=
EXTT5=
PLAYORDER=
